<svg width="40" height="40" viewBox="0 0 40 40" fill="none" xmlns="http://www.w3.org/2000/svg">
<circle cx="20" cy="20" r="19.5" fill="#D4D4D4" fill-opacity="0.57" stroke="#E2E2E2"/>
<path d="M15.7891 13.4035C16.3295 13.3935 16.8692 13.4489 17.3962 13.5685C17.84 13.6654 18.2614 13.8457 18.6379 14.0998C18.9856 14.3525 19.2608 14.6922 19.4357 15.0849C19.6367 15.5677 19.7337 16.0875 19.7203 16.6103C19.7431 17.1844 19.5965 17.7525 19.2987 18.2439C18.9854 18.7079 18.5524 19.0785 18.0455 19.3164C18.7334 19.5018 19.3325 19.9266 19.7352 20.5143C20.1217 21.137 20.316 21.8599 20.2937 22.5925C20.3064 23.1766 20.1857 23.7559 19.9406 24.2863C19.714 24.7489 19.3823 25.1521 18.972 25.4635C18.5496 25.7716 18.0742 25.9995 17.5695 26.1359C17.0461 26.2807 16.5054 26.3534 15.9624 26.3521H10V13.4035H15.7891ZM15.4451 18.6407C15.8697 18.6582 16.2877 18.5311 16.6306 18.2802C16.7949 18.1339 16.9227 17.9513 17.0037 17.7469C17.0848 17.5425 17.117 17.3219 17.0976 17.1029C17.1086 16.847 17.0576 16.5923 16.9491 16.3603C16.857 16.1757 16.7138 16.0213 16.5366 15.9157C16.3571 15.7993 16.1554 15.7215 15.9442 15.6871C15.7151 15.6428 15.482 15.6226 15.2487 15.6269H12.7011V18.6522H15.4451V18.6407ZM15.5936 24.1534C15.8504 24.1569 16.1066 24.1292 16.3567 24.0709C16.5853 24.0204 16.8021 23.9266 16.9953 23.7945C17.1846 23.6625 17.3375 23.4849 17.44 23.2781C17.5587 23.0144 17.6133 22.7263 17.5992 22.4374C17.6249 22.1741 17.5901 21.9085 17.4973 21.6608C17.4045 21.4131 17.2562 21.19 17.0638 21.0085C16.656 20.7081 16.1562 20.5593 15.6505 20.5877H12.7011V24.1534H15.5936Z" fill="#353535"/>
<path d="M24.1407 24.1056C24.3527 24.3021 24.6025 24.4535 24.8748 24.5505C25.1471 24.6475 25.4362 24.6881 25.7247 24.6699C26.1821 24.6815 26.6305 24.5423 27.001 24.2739C27.3024 24.078 27.5307 23.7879 27.6503 23.4489H29.8044C29.5749 24.414 29.0144 25.2682 28.2204 25.8629C27.4587 26.3685 26.5585 26.6245 25.6447 26.5955C24.9925 26.6041 24.3453 26.4815 23.7414 26.235C23.1951 26.0072 22.7052 25.6628 22.3059 25.226C21.908 24.7683 21.6024 24.238 21.4058 23.6642C21.1851 23.023 21.0771 22.3483 21.0865 21.6702C21.0825 21.0034 21.1941 20.341 21.4165 19.7124C21.7153 18.8281 22.2865 18.0612 23.0482 17.5216C23.8099 16.9821 24.7229 16.6978 25.6563 16.7094C26.3453 16.695 27.0268 16.8562 27.6363 17.178C28.1873 17.4801 28.6626 17.9032 29.0264 18.4155C29.3987 18.9531 29.6655 19.5564 29.8127 20.1934C29.9741 20.8775 30.0317 21.582 29.9835 22.2832H23.5673C23.5153 22.942 23.7209 23.5953 24.1407 24.1056ZM26.9557 19.1811C26.7761 19.0015 26.5602 18.8625 26.3224 18.7734C26.0845 18.6843 25.8304 18.6472 25.5771 18.6647C25.2409 18.6518 24.9073 18.7263 24.6085 18.8808C24.3716 19.0112 24.1626 19.1867 23.993 19.3973C23.8428 19.5948 23.7309 19.8186 23.663 20.0573C23.6019 20.2563 23.5637 20.4617 23.5492 20.6694H27.5233C27.4886 20.128 27.2914 19.6095 26.9573 19.1819L26.9557 19.1811Z" fill="#353535"/>
<path d="M28.0164 14.2681H23.0366V15.5411H28.0164V14.2681Z" fill="#353535"/>
</svg>
