<svg width="40" height="40" viewBox="0 0 40 40" fill="none" xmlns="http://www.w3.org/2000/svg">
<circle cx="20" cy="20" r="19.5" fill="#D4D4D4" fill-opacity="0.57" stroke="#E2E2E2"/>
<path d="M29 12.3235V27.6765C29 28.0275 28.8606 28.3641 28.6123 28.6123C28.3641 28.8606 28.0275 29 27.6765 29H12.3235C11.9725 29 11.6359 28.8606 11.3877 28.6123C11.1394 28.3641 11 28.0275 11 27.6765V12.3235C11 11.9725 11.1394 11.6359 11.3877 11.3877C11.6359 11.1394 11.9725 11 12.3235 11H27.6765C28.0275 11 28.3641 11.1394 28.6123 11.3877C28.8606 11.6359 29 11.9725 29 12.3235ZM16.2941 17.8824H13.6471V26.3529H16.2941V17.8824ZM16.5324 14.9706C16.5337 14.7704 16.4957 14.5718 16.4204 14.3863C16.345 14.2008 16.2339 14.0319 16.0933 13.8893C15.9527 13.7468 15.7854 13.6333 15.6009 13.5554C15.4165 13.4775 15.2185 13.4367 15.0182 13.4353H14.9706C14.5634 13.4353 14.1729 13.597 13.885 13.885C13.597 14.1729 13.4353 14.5634 13.4353 14.9706C13.4353 15.3778 13.597 15.7683 13.885 16.0562C14.1729 16.3441 14.5634 16.5059 14.9706 16.5059C15.1708 16.5108 15.3701 16.4762 15.557 16.4041C15.7438 16.332 15.9147 16.2238 16.0597 16.0856C16.2047 15.9475 16.3211 15.7821 16.4022 15.599C16.4833 15.4158 16.5275 15.2185 16.5324 15.0182V14.9706ZM26.3529 21.2071C26.3529 18.6606 24.7329 17.6706 23.1235 17.6706C22.5966 17.6442 22.0719 17.7564 21.6019 17.9961C21.1318 18.2358 20.7328 18.5945 20.4447 19.0365H20.3706V17.8824H17.8824V26.3529H20.5294V21.8476C20.4911 21.3862 20.6365 20.9283 20.9339 20.5735C21.2313 20.2186 21.6567 19.9954 22.1176 19.9524H22.2182C23.06 19.9524 23.6847 20.4818 23.6847 21.8159V26.3529H26.3318L26.3529 21.2071Z" fill="#353535"/>
</svg>
