<svg width="60" height="60" viewBox="0 0 60 60" fill="none" xmlns="http://www.w3.org/2000/svg">
<rect width="60" height="60" rx="13.7143" fill="#82AFF9"/>
<path d="M25.521 15.4287C23.9617 15.4287 22.671 16.7118 22.671 18.262V20.2859H16.5639C14.9923 20.2859 13.7139 21.5568 13.7139 23.1192V33.2382H27.5567V32.8335C27.5567 32.1616 28.1023 31.6192 28.7782 31.6192H31.221C31.8969 31.6192 32.4424 32.1616 32.4424 32.8335V33.2382H46.2853V23.1192C46.2853 21.5568 45.0069 20.2859 43.4353 20.2859H37.3282V18.262C37.3282 16.7118 36.0375 15.4287 34.4782 15.4287H25.521ZM25.521 17.8573H34.4782C34.7184 17.8573 34.8853 18.0232 34.8853 18.262V20.2859H25.1139V18.262C25.1139 18.0232 25.2808 17.8573 25.521 17.8573ZM13.7139 35.6668V41.7382C13.7139 43.3006 14.9923 44.5716 16.5639 44.5716H43.4353C45.0069 44.5716 46.2853 43.3006 46.2853 41.7382V35.6668H32.4424V36.0716C32.4424 36.7435 31.8969 37.2859 31.221 37.2859H28.7782C28.1023 37.2859 27.5567 36.7435 27.5567 36.0716V35.6668H13.7139Z" fill="white"/>
</svg>
