<svg width="60" height="60" viewBox="0 0 60 60" fill="none" xmlns="http://www.w3.org/2000/svg">
<rect width="60" height="60" rx="13.7143" fill="#7DCFB6"/>
<path d="M18.1278 15.4373C17.8606 15.4666 17.6044 15.5839 17.4037 15.7841L15.7847 17.3983C15.3823 17.8002 15.3127 18.4251 15.6187 18.9037L18.7397 23.7857C19.1995 24.5209 19.9574 24.998 20.8203 25.0956C20.9288 25.1077 21.0384 25.1145 21.146 25.1145C21.7636 25.1145 22.3519 24.9052 22.8425 24.5329L28.7873 30.46C27.9016 32.0329 28.1183 34.065 29.4514 35.4082L37.4579 43.3467C38.2407 44.1328 39.284 44.5675 40.3955 44.5716H40.4113C41.5171 44.5716 42.5574 44.1437 43.3426 43.3672C44.1302 42.5868 44.567 41.5465 44.5711 40.4383C44.5751 39.3302 44.1475 38.2869 43.3663 37.5032L35.3677 29.5741C34.5849 28.7855 33.5416 28.3478 32.4285 28.3429H32.4095C31.7516 28.3429 31.1249 28.5106 30.5534 28.7969L24.5564 22.8178C24.994 22.2425 25.2071 21.5315 25.124 20.8016C25.0252 19.9421 24.5466 19.187 23.8196 18.7334L18.9136 15.6185C18.6728 15.4664 18.395 15.4079 18.1278 15.4373ZM36.5725 15.4436C35.8153 15.3988 35.0303 15.4541 34.2293 15.6249C30.8707 16.3407 28.2317 19.1137 27.6853 22.4946C27.6278 22.8506 27.5932 23.2014 27.5794 23.5492L30.9613 26.9211C31.4365 26.7935 31.9198 26.7287 32.4095 26.7287C33.9808 26.736 35.4316 27.3431 36.5187 28.4375L39.6777 31.5682C42.196 30.3777 44.0729 27.9808 44.4825 25.1382C44.6792 23.7726 44.5424 22.4627 44.1473 21.2698C43.8689 20.4304 42.7747 20.2069 42.1473 20.8316L38.5362 24.4304C37.6983 25.2657 36.2564 25.3379 35.4389 24.4824C35.0657 24.0918 34.8602 23.58 34.8602 23.0385C34.8602 22.4792 35.0786 21.9546 35.4752 21.5583L39.186 17.8586C39.8117 17.2347 39.5882 16.1453 38.7496 15.8645C38.0591 15.6332 37.3297 15.4884 36.5725 15.4436ZM25.0481 29.0145L16.629 37.4511C15.851 38.2324 15.4249 39.2712 15.4289 40.3737C15.433 41.4762 15.8675 42.5112 16.6511 43.2868C17.4314 44.06 18.4656 44.4849 19.5666 44.4849H19.5824C20.6882 44.4808 21.7254 44.0476 22.5042 43.2648L28.7604 36.9987L28.3098 36.5526C26.8098 35.0425 26.2991 32.8356 26.89 30.8509L25.0481 29.0145Z" fill="white"/>
</svg>
