<svg width="69" height="68" viewBox="0 0 69 68" fill="none" xmlns="http://www.w3.org/2000/svg">
<g filter="url(#filter0_d_1080_4247)">
<rect x="4.50684" y="2" width="60.0875" height="60.0875" rx="30.0437" fill="white"/>
<rect x="5.47599" y="2.96915" width="58.1492" height="58.1492" rx="29.0746" stroke="#D8E0F0" stroke-width="1.93831"/>
</g>
<path fill-rule="evenodd" clip-rule="evenodd" d="M34.7343 23.6456H34.5238C34.0369 21.3832 32.0249 19.6875 29.6169 19.6875C27.2089 19.6875 25.1969 21.3832 24.7099 23.6456H24.5848C22.5057 23.6456 20.8203 25.9621 20.8203 28.0412V28.665C20.8203 30.3041 21.8679 32.412 23.33 32.9288L23.33 42.0093C23.33 44.0884 25.0154 45.7739 27.0945 45.7739H42.1526C44.2317 45.7739 45.9171 44.0884 45.9171 42.0093L45.9171 32.9288C47.3793 32.412 48.4268 30.3041 48.4268 28.665V28.0412C48.4268 25.9621 46.7414 23.6456 44.6623 23.6456H44.5482C44.0613 21.3832 42.0493 19.6875 39.6413 19.6875C37.2333 19.6875 35.2213 21.3832 34.7343 23.6456ZM29.6304 22.1972C28.6284 22.1972 27.7636 22.7844 27.3612 23.6334L29.6304 23.6334H31.8995C31.4972 22.7844 30.6323 22.1972 29.6304 22.1972ZM25.8397 42.0093L25.8397 33.143H33.3759V43.2642H27.0945C26.4015 43.2642 25.8397 42.7024 25.8397 42.0093ZM35.8712 43.2642V33.143H43.4075L43.4075 42.0093C43.4075 42.7024 42.8456 43.2642 42.1526 43.2642H35.8712ZM35.8712 26.1553V30.6333H44.6623C45.3553 30.6333 45.9171 29.358 45.9171 28.665V28.0412C45.9171 27.3481 45.3553 26.1553 44.6623 26.1553H35.8712ZM33.3759 30.6333V26.1553H24.5848C23.8918 26.1553 23.33 27.3481 23.33 28.0412V28.665C23.33 29.358 23.8918 30.6333 24.5848 30.6333H33.3759ZM37.3849 23.6334C37.7872 22.7844 38.6521 22.1972 39.654 22.1972C40.656 22.1972 41.5208 22.7844 41.9232 23.6334H39.654L37.3849 23.6334Z" fill="#3F8CFF"/>
<path fill-rule="evenodd" clip-rule="evenodd" d="M34.7343 23.6456H34.5238C34.0369 21.3832 32.0249 19.6875 29.6169 19.6875C27.2089 19.6875 25.1969 21.3832 24.7099 23.6456H24.5848C22.5057 23.6456 20.8203 25.9621 20.8203 28.0412V28.665C20.8203 30.3041 21.8679 32.412 23.33 32.9288L23.33 42.0093C23.33 44.0884 25.0154 45.7739 27.0945 45.7739H42.1526C44.2317 45.7739 45.9171 44.0884 45.9171 42.0093L45.9171 32.9288C47.3793 32.412 48.4268 30.3041 48.4268 28.665V28.0412C48.4268 25.9621 46.7414 23.6456 44.6623 23.6456H44.5482C44.0613 21.3832 42.0493 19.6875 39.6413 19.6875C37.2333 19.6875 35.2213 21.3832 34.7343 23.6456ZM29.6304 22.1972C28.6284 22.1972 27.7636 22.7844 27.3612 23.6334L29.6304 23.6334H31.8995C31.4972 22.7844 30.6323 22.1972 29.6304 22.1972ZM25.8397 42.0093L25.8397 33.143H33.3759V43.2642H27.0945C26.4015 43.2642 25.8397 42.7024 25.8397 42.0093ZM35.8712 43.2642V33.143H43.4075L43.4075 42.0093C43.4075 42.7024 42.8456 43.2642 42.1526 43.2642H35.8712ZM35.8712 26.1553V30.6333H44.6623C45.3553 30.6333 45.9171 29.358 45.9171 28.665V28.0412C45.9171 27.3481 45.3553 26.1553 44.6623 26.1553H35.8712ZM33.3759 30.6333V26.1553H24.5848C23.8918 26.1553 23.33 27.3481 23.33 28.0412V28.665C23.33 29.358 23.8918 30.6333 24.5848 30.6333H33.3759ZM37.3849 23.6334C37.7872 22.7844 38.6521 22.1972 39.654 22.1972C40.656 22.1972 41.5208 22.7844 41.9232 23.6334H39.654L37.3849 23.6334Z" fill="#3F8CFF"/>
<defs>
<filter id="filter0_d_1080_4247" x="0.630225" y="0.0616946" width="67.8411" height="67.8406" filterUnits="userSpaceOnUse" color-interpolation-filters="sRGB">
<feFlood flood-opacity="0" result="BackgroundImageFix"/>
<feColorMatrix in="SourceAlpha" type="matrix" values="0 0 0 0 0 0 0 0 0 0 0 0 0 0 0 0 0 0 127 0" result="hardAlpha"/>
<feOffset dy="1.93831"/>
<feGaussianBlur stdDeviation="1.93831"/>
<feColorMatrix type="matrix" values="0 0 0 0 0.720325 0 0 0 0 0.784456 0 0 0 0 0.880237 0 0 0 0.222055 0"/>
<feBlend mode="normal" in2="BackgroundImageFix" result="effect1_dropShadow_1080_4247"/>
<feBlend mode="normal" in="SourceGraphic" in2="effect1_dropShadow_1080_4247" result="shape"/>
</filter>
</defs>
</svg>
