<svg width="60" height="60" viewBox="0 0 60 60" fill="none" xmlns="http://www.w3.org/2000/svg">
<rect width="60" height="60" rx="13.7143" fill="#BDB2FF"/>
<path d="M40.4734 12H19.5269C17.2638 12 15.4287 13.8999 15.4287 16.2429V45.4714C15.4287 47.8144 17.2638 49.7143 19.5269 49.7143H40.4734C42.7365 49.7143 44.5716 47.8144 44.5716 45.4714V16.2429C44.5716 13.8999 42.7365 12 40.4734 12ZM30.0001 17.6571C31.7578 17.6571 33.1876 19.1374 33.1876 20.9571C33.1876 22.7769 31.7578 24.2571 30.0001 24.2571C28.2425 24.2571 26.8126 22.7769 26.8126 20.9571C26.8126 19.1374 28.2425 17.6571 30.0001 17.6571ZM24.5359 27.5571C24.5359 26.7765 25.1479 26.1429 25.9019 26.1429H34.0984C34.8524 26.1429 35.4644 26.7765 35.4644 27.5571V28.5C35.4644 30.3225 33.0182 31.8 30.0001 31.8C26.982 31.8 24.5359 30.3225 24.5359 28.5V27.5571ZM33.1876 43.1143H23.1698C22.4148 43.1143 21.8037 42.4807 21.8037 41.7C21.8037 40.9193 22.4148 40.2857 23.1698 40.2857H33.1876C33.9426 40.2857 34.5537 40.9193 34.5537 41.7C34.5537 42.4807 33.9426 43.1143 33.1876 43.1143ZM36.8305 37.4571H23.1698C22.4148 37.4571 21.8037 36.8235 21.8037 36.0429C21.8037 35.2622 22.4148 34.6286 23.1698 34.6286H36.8305C37.5855 34.6286 38.1966 35.2622 38.1966 36.0429C38.1966 36.8235 37.5855 37.4571 36.8305 37.4571Z" fill="white"/>
</svg>
