<svg width="69" height="68" viewBox="0 0 69 68" fill="none" xmlns="http://www.w3.org/2000/svg">
<g filter="url(#filter0_d_1080_4253)">
<rect x="4.50684" y="2" width="60.0875" height="60.0875" rx="30.0437" fill="white"/>
<rect x="5.47599" y="2.96915" width="58.1492" height="58.1492" rx="29.0746" stroke="#D8E0F0" stroke-width="1.93831"/>
</g>
<path fill-rule="evenodd" clip-rule="evenodd" d="M40.3644 27.3593C40.3644 31.106 37.327 34.1433 33.5803 34.1433C29.8336 34.1433 26.7962 31.106 26.7962 27.3593C26.7962 23.6125 29.8336 20.5752 33.5803 20.5752C37.327 20.5752 40.3644 23.6125 40.3644 27.3593ZM38.103 27.3593C38.103 29.8571 36.0781 31.882 33.5803 31.882C31.0825 31.882 29.0576 29.8571 29.0576 27.3593C29.0576 24.8614 31.0825 22.8366 33.5803 22.8366C36.0781 22.8366 38.103 24.8614 38.103 27.3593Z" fill="#3F8CFF"/>
<path d="M24.9839 41.4798C25.355 40.667 26.0365 39.7031 27.3179 38.9325C28.6061 38.1579 30.573 37.5354 33.5804 37.5354C34.2048 37.5354 34.7111 37.0291 34.7111 36.4047C34.7111 35.7802 34.2048 35.274 33.5804 35.274C30.2617 35.274 27.8689 35.9624 26.1525 36.9946C24.4292 38.0309 23.4613 39.3698 22.9267 40.5408C22.4762 41.5279 22.6813 42.5338 23.2799 43.2505C23.8505 43.9336 24.7377 44.3194 25.6656 44.3194H33.5803C34.2048 44.3194 34.711 43.8132 34.711 43.1888C34.711 42.5643 34.2048 42.0581 33.5803 42.0581H25.6656C25.3446 42.0581 25.1174 41.9228 25.0154 41.8008C24.968 41.7439 24.9514 41.6966 24.9464 41.663C24.942 41.6336 24.9401 41.5758 24.9839 41.4798Z" fill="#3F8CFF"/>
<path d="M43.9906 36.1707C44.4322 36.6122 44.4322 37.3282 43.9906 37.7697L41.9636 39.7967L43.9908 41.8239C44.4324 42.2654 44.4324 42.9813 43.9908 43.4229C43.5493 43.8644 42.8334 43.8644 42.3918 43.4229L40.3646 41.3957L38.3372 43.4231C37.8957 43.8647 37.1797 43.8647 36.7382 43.4231C36.2966 42.9815 36.2966 42.2656 36.7382 41.8241L38.7656 39.7967L36.7384 37.7695C36.2969 37.3279 36.2969 36.612 36.7384 36.1705C37.18 35.7289 37.8959 35.7289 38.3375 36.1705L40.3646 38.1976L42.3916 36.1707C42.8331 35.7291 43.549 35.7291 43.9906 36.1707Z" fill="#3F8CFF"/>
<defs>
<filter id="filter0_d_1080_4253" x="0.630225" y="0.0616946" width="67.8411" height="67.8406" filterUnits="userSpaceOnUse" color-interpolation-filters="sRGB">
<feFlood flood-opacity="0" result="BackgroundImageFix"/>
<feColorMatrix in="SourceAlpha" type="matrix" values="0 0 0 0 0 0 0 0 0 0 0 0 0 0 0 0 0 0 127 0" result="hardAlpha"/>
<feOffset dy="1.93831"/>
<feGaussianBlur stdDeviation="1.93831"/>
<feColorMatrix type="matrix" values="0 0 0 0 0.720325 0 0 0 0 0.784456 0 0 0 0 0.880237 0 0 0 0.222055 0"/>
<feBlend mode="normal" in2="BackgroundImageFix" result="effect1_dropShadow_1080_4253"/>
<feBlend mode="normal" in="SourceGraphic" in2="effect1_dropShadow_1080_4253" result="shape"/>
</filter>
</defs>
</svg>
