<svg width="69" height="68" viewBox="0 0 69 68" fill="none" xmlns="http://www.w3.org/2000/svg">
<g filter="url(#filter0_d_1080_4248)">
<rect x="4.50684" y="2" width="60.0875" height="60.0875" rx="30.0437" fill="white"/>
<rect x="5.47599" y="2.96915" width="58.1492" height="58.1492" rx="29.0746" stroke="#D8E0F0" stroke-width="1.93831"/>
</g>
<path fill-rule="evenodd" clip-rule="evenodd" d="M34.5507 18.3145C29.8326 18.3145 26.0078 22.0561 26.0078 26.6716C26.0078 30.8819 29.1903 34.3649 33.3303 34.9442V39.8044C33.3303 40.4637 33.8767 40.9982 34.5507 40.9982C35.2247 40.9982 35.7711 40.4637 35.7711 39.8044V34.9442C39.9111 34.3649 43.0936 30.8819 43.0936 26.6716C43.0936 22.0561 39.2688 18.3145 34.5507 18.3145ZM28.448 26.6714C28.448 23.3746 31.18 20.7019 34.5501 20.7019C37.9202 20.7019 40.6522 23.3746 40.6522 26.6714C40.6522 29.9682 37.9202 32.6408 34.5501 32.6408C31.18 32.6408 28.448 29.9682 28.448 26.6714Z" fill="#3F8CFF"/>
<path fill-rule="evenodd" clip-rule="evenodd" d="M31.043 40.0123C31.7117 39.9295 32.1852 39.3321 32.1006 38.678C32.016 38.0238 31.4054 37.5606 30.7367 37.6434C28.8789 37.8733 27.2216 38.2737 25.9916 38.8214C25.3795 39.0938 24.8114 39.4296 24.379 39.8489C23.943 40.2716 23.5674 40.8605 23.5674 41.5956C23.5674 42.5643 24.2073 43.2676 24.8298 43.7176C25.4763 44.1848 26.3336 44.5552 27.2834 44.8456C29.1974 45.4307 31.7667 45.7742 34.5511 45.7742C37.3355 45.7742 39.9048 45.4307 41.8188 44.8456C42.7687 44.5552 43.626 44.1848 44.2724 43.7176C44.895 43.2676 45.5348 42.5643 45.5348 41.5956C45.5348 40.8605 45.1592 40.2716 44.7231 39.8489C44.2908 39.4296 43.7228 39.0938 43.1106 38.8214C41.8807 38.2737 40.2234 37.8733 38.3655 37.6434C37.6969 37.5606 37.0862 38.0238 37.0016 38.678C36.917 39.3321 37.3905 39.9295 38.0592 40.0123C39.7795 40.2251 41.1732 40.5822 42.0996 40.9946C42.5658 41.2022 42.8524 41.3969 43.005 41.545C43.0251 41.5643 43.0413 41.5813 43.0544 41.5959C43.014 41.6419 42.9432 41.7095 42.822 41.7971C42.4803 42.044 41.9079 42.3167 41.0908 42.5665C39.4712 43.0617 37.1589 43.3864 34.5511 43.3864C31.9434 43.3864 29.631 43.0617 28.0114 42.5665C27.1944 42.3167 26.6219 42.044 26.2803 41.7971C26.159 41.7095 26.0883 41.6419 26.0479 41.5959C26.061 41.5813 26.0772 41.5643 26.0971 41.545C26.2498 41.3969 26.5364 41.2022 27.0026 40.9946C27.9291 40.5822 29.3228 40.2251 31.043 40.0123Z" fill="#3F8CFF"/>
<defs>
<filter id="filter0_d_1080_4248" x="0.630225" y="0.0616946" width="67.8411" height="67.8406" filterUnits="userSpaceOnUse" color-interpolation-filters="sRGB">
<feFlood flood-opacity="0" result="BackgroundImageFix"/>
<feColorMatrix in="SourceAlpha" type="matrix" values="0 0 0 0 0 0 0 0 0 0 0 0 0 0 0 0 0 0 127 0" result="hardAlpha"/>
<feOffset dy="1.93831"/>
<feGaussianBlur stdDeviation="1.93831"/>
<feColorMatrix type="matrix" values="0 0 0 0 0.720325 0 0 0 0 0.784456 0 0 0 0 0.880237 0 0 0 0.222055 0"/>
<feBlend mode="normal" in2="BackgroundImageFix" result="effect1_dropShadow_1080_4248"/>
<feBlend mode="normal" in="SourceGraphic" in2="effect1_dropShadow_1080_4248" result="shape"/>
</filter>
</defs>
</svg>
