<svg width="69" height="68" viewBox="0 0 69 68" fill="none" xmlns="http://www.w3.org/2000/svg">
<g filter="url(#filter0_d_1080_4249)">
<rect x="4.50781" y="2" width="60.0875" height="60.0875" rx="30.0437" fill="white"/>
<rect x="5.47697" y="2.96915" width="58.1492" height="58.1492" rx="29.0746" stroke="#D8E0F0" stroke-width="1.93831"/>
</g>
<path fill-rule="evenodd" clip-rule="evenodd" d="M37.1182 19.7763C37.1237 19.706 37.1266 19.6348 37.1266 19.563C37.1266 18.1154 35.9734 16.9419 34.5509 16.9419C33.1283 16.9419 31.9752 18.1154 31.9752 19.563C31.9752 19.6348 31.978 19.706 31.9836 19.7763C28.7787 20.3303 26.409 21.9064 24.6927 23.8336C22.5827 26.2029 21.4969 29.0557 20.948 31.0638C20.4235 32.9831 21.5956 34.6219 23.203 35.1284L25.0867 42.7961C25.5167 44.5463 27.062 45.7742 28.8349 45.7742H40.267C42.0398 45.7742 43.5851 44.5463 44.0151 42.7961L45.8989 35.1284C47.5062 34.6219 48.6784 32.9831 48.1539 31.0638C47.605 29.0557 46.5191 26.2029 44.4091 23.8336C42.6929 21.9064 40.3231 20.3302 37.1182 19.7763ZM23.4288 31.7662C23.9226 29.9594 24.8661 27.5414 26.6005 25.5938C28.299 23.6866 30.7912 22.1842 34.5501 22.1842C38.3092 22.1842 40.8013 23.6866 42.4999 25.5938C44.2344 27.5414 45.1777 29.9594 45.6716 31.7662C45.737 32.0058 45.6812 32.2046 45.5512 32.3625C45.412 32.5317 45.1688 32.6687 44.8529 32.6687H24.2474C23.9316 32.6687 23.6885 32.5317 23.5491 32.3625C23.4192 32.2046 23.3633 32.0058 23.4288 31.7662ZM27.5859 42.1601L25.898 35.2895H43.2047L41.5167 42.1601C41.3734 42.7436 40.8584 43.1529 40.2674 43.1529H38.7325L39.672 38.8502C39.8263 38.1437 39.3885 37.4436 38.6943 37.2866C37.9998 37.1296 37.312 37.575 37.1577 38.2817L36.094 43.1529H33.0087L31.945 38.2817C31.7907 37.575 31.1027 37.1296 30.4084 37.2866C29.7141 37.4436 29.2763 38.1437 29.4306 38.8502L30.3702 43.1529H28.8353C28.2443 43.1529 27.7292 42.7436 27.5859 42.1601Z" fill="#3F8CFF"/>
<defs>
<filter id="filter0_d_1080_4249" x="0.631202" y="0.0616946" width="67.8411" height="67.8406" filterUnits="userSpaceOnUse" color-interpolation-filters="sRGB">
<feFlood flood-opacity="0" result="BackgroundImageFix"/>
<feColorMatrix in="SourceAlpha" type="matrix" values="0 0 0 0 0 0 0 0 0 0 0 0 0 0 0 0 0 0 127 0" result="hardAlpha"/>
<feOffset dy="1.93831"/>
<feGaussianBlur stdDeviation="1.93831"/>
<feColorMatrix type="matrix" values="0 0 0 0 0.720325 0 0 0 0 0.784456 0 0 0 0 0.880237 0 0 0 0.222055 0"/>
<feBlend mode="normal" in2="BackgroundImageFix" result="effect1_dropShadow_1080_4249"/>
<feBlend mode="normal" in="SourceGraphic" in2="effect1_dropShadow_1080_4249" result="shape"/>
</filter>
</defs>
</svg>
