<svg width="60" height="60" viewBox="0 0 60 60" fill="none" xmlns="http://www.w3.org/2000/svg">
<rect x="-0.000976562" width="60" height="60" rx="13.7143" fill="#F79256"/>
<path d="M21.8563 12C21.5153 12 21.1883 12.1422 20.9472 12.3954C20.7061 12.6486 20.5706 12.992 20.5706 13.35C20.5706 13.708 20.7061 14.0514 20.9472 14.3046C21.1883 14.5578 21.5153 14.7 21.8563 14.7C22.1973 14.7 22.5243 14.5578 22.7654 14.3046C23.0066 14.0514 23.142 13.708 23.142 13.35C23.142 12.992 23.0066 12.6486 22.7654 12.3954C22.5243 12.1422 22.1973 12 21.8563 12ZM29.9992 12C26.7034 12.0011 23.9992 14.8298 23.9992 18.293C23.9992 20.0899 24.7257 21.7236 25.8792 22.8686C25.8861 22.8755 25.9075 22.904 25.9194 22.96L25.921 22.9688L26.8502 27.1119C27.0941 28.2664 28.083 29.1 29.209 29.1H30.7893C31.9153 29.1 32.9031 28.2651 33.1482 27.1137L34.0773 22.9688L34.079 22.96C34.0909 22.9034 34.114 22.8738 34.1175 22.8703H34.1191C35.2743 21.7248 35.9992 20.0887 35.9992 18.293C35.9992 14.8298 33.295 12.0011 29.9992 12ZM38.142 12C37.801 12 37.474 12.1422 37.2329 12.3954C36.9918 12.6486 36.8563 12.992 36.8563 13.35C36.8563 13.708 36.9918 14.0514 37.2329 14.3046C37.474 14.5578 37.801 14.7 38.142 14.7C38.483 14.7 38.81 14.5578 39.0512 14.3046C39.2923 14.0514 39.4277 13.708 39.4277 13.35C39.4277 12.992 39.2923 12.6486 39.0512 12.3954C38.81 12.1422 38.483 12 38.142 12ZM29.9992 14.7C31.9097 14.7007 33.4277 16.2896 33.4277 18.293C33.4277 19.3305 33.0165 20.2488 32.353 20.9068C31.9364 21.3192 31.6827 21.839 31.5695 22.3746L31.0706 24.6H28.9277L28.4289 22.3746C28.3155 21.8384 28.0601 21.3193 27.647 20.9086V20.9068H27.6454C26.9818 20.2482 26.5706 19.331 26.5706 18.293C26.5706 16.2896 28.0887 14.7007 29.9992 14.7ZM20.142 16.5C19.801 16.5 19.474 16.6422 19.2329 16.8954C18.9918 17.1486 18.8563 17.492 18.8563 17.85C18.8563 18.208 18.9918 18.5514 19.2329 18.8046C19.474 19.0578 19.801 19.2 20.142 19.2C20.483 19.2 20.81 19.0578 21.0512 18.8046C21.2923 18.5514 21.4277 18.208 21.4277 17.85C21.4277 17.492 21.2923 17.1486 21.0512 16.8954C20.81 16.6422 20.483 16.5 20.142 16.5ZM39.8563 16.5C39.5153 16.5 39.1883 16.6422 38.9472 16.8954C38.706 17.1486 38.5706 17.492 38.5706 17.85C38.5706 18.208 38.706 18.5514 38.9472 18.8046C39.1883 19.0578 39.5153 19.2 39.8563 19.2C40.1973 19.2 40.5243 19.0578 40.7654 18.8046C41.0066 18.5514 41.142 18.208 41.142 17.85C41.142 17.492 41.0066 17.1486 40.7654 16.8954C40.5243 16.6422 40.1973 16.5 39.8563 16.5ZM21.8563 21C21.5153 21 21.1883 21.1422 20.9472 21.3954C20.7061 21.6486 20.5706 21.992 20.5706 22.35C20.5706 22.708 20.7061 23.0514 20.9472 23.3046C21.1883 23.5578 21.5153 23.7 21.8563 23.7C22.1973 23.7 22.5243 23.5578 22.7654 23.3046C23.0066 23.0514 23.142 22.708 23.142 22.35C23.142 21.992 23.0066 21.6486 22.7654 21.3954C22.5243 21.1422 22.1973 21 21.8563 21ZM38.142 21C37.801 21 37.474 21.1422 37.2329 21.3954C36.9918 21.6486 36.8563 21.992 36.8563 22.35C36.8563 22.708 36.9918 23.0514 37.2329 23.3046C37.474 23.5578 37.801 23.7 38.142 23.7C38.483 23.7 38.81 23.5578 39.0512 23.3046C39.2923 23.0514 39.4277 22.708 39.4277 22.35C39.4277 21.992 39.2923 21.6486 39.0512 21.3954C38.81 21.1422 38.483 21 38.142 21ZM22.2849 28.2C21.1482 28.2 20.0581 28.6741 19.2544 29.518C18.4507 30.3619 17.9992 31.5065 17.9992 32.7C17.9992 33.8935 18.4507 35.0381 19.2544 35.882C20.0581 36.7259 21.1482 37.2 22.2849 37.2C23.4215 37.2 24.5116 36.7259 25.3153 35.882C26.1191 35.0381 26.5706 33.8935 26.5706 32.7C26.5706 31.5065 26.1191 30.3619 25.3153 29.518C24.5116 28.6741 23.4215 28.2 22.2849 28.2ZM37.7134 28.2C36.5768 28.2 35.4867 28.6741 34.683 29.518C33.8793 30.3619 33.4277 31.5065 33.4277 32.7C33.4277 33.8935 33.8793 35.0381 34.683 35.882C35.4867 36.7259 36.5768 37.2 37.7134 37.2C38.8501 37.2 39.9402 36.7259 40.7439 35.882C41.5476 35.0381 41.9992 33.8935 41.9992 32.7C41.9992 31.5065 41.5476 30.3619 40.7439 29.518C39.9402 28.6741 38.8501 28.2 37.7134 28.2ZM18.4277 39.9C16.7734 39.9 15.4277 41.313 15.4277 43.05V43.5C15.4277 46.0659 18.3754 48 22.2849 48C26.1943 48 29.142 46.0659 29.142 43.5V43.05C29.142 41.313 27.7963 39.9 26.142 39.9H18.4277ZM33.8563 39.9C32.202 39.9 30.8563 41.313 30.8563 43.05V43.5C30.8563 46.0659 33.804 48 37.7134 48C41.6229 48 44.5706 46.0659 44.5706 43.5V43.05C44.5706 41.313 43.2249 39.9 41.5706 39.9H33.8563Z" fill="white"/>
</svg>
