<svg width="69" height="69" viewBox="0 0 69 69" fill="none" xmlns="http://www.w3.org/2000/svg">
<g filter="url(#filter0_d_1080_4251)">
<rect x="4.50684" y="2.2085" width="60.0875" height="60.0875" rx="30.0437" fill="white"/>
<rect x="5.47599" y="3.17765" width="58.1492" height="58.1492" rx="29.0746" stroke="#D8E0F0" stroke-width="1.93831"/>
</g>
<path fill-rule="evenodd" clip-rule="evenodd" d="M45.5347 32.2521C45.5347 26.186 40.6171 21.2684 34.551 21.2684C28.4848 21.2684 23.5672 26.186 23.5672 32.2521C23.5672 38.3183 28.4848 43.2359 34.551 43.2359C40.6171 43.2359 45.5347 38.3183 45.5347 32.2521ZM48.2806 32.2521C48.2806 24.6694 42.1336 18.5225 34.551 18.5225C26.9683 18.5225 20.8213 24.6694 20.8213 32.2521C20.8213 39.8348 26.9683 45.9818 34.551 45.9818C42.1336 45.9818 48.2806 39.8348 48.2806 32.2521Z" fill="#3F8CFF"/>
<path fill-rule="evenodd" clip-rule="evenodd" d="M35.9237 25.3876V31.6837L38.954 34.714C39.4901 35.2502 39.4901 36.1195 38.954 36.6557C38.4178 37.1919 37.5485 37.1919 37.0123 36.6557L33.982 33.6254C33.467 33.1105 33.1777 32.412 33.1777 31.6837V25.3876C33.1777 24.6293 33.7924 24.0146 34.5507 24.0146C35.309 24.0146 35.9237 24.6293 35.9237 25.3876Z" fill="#3F8CFF"/>
<defs>
<filter id="filter0_d_1080_4251" x="0.630225" y="0.270191" width="67.8411" height="67.8406" filterUnits="userSpaceOnUse" color-interpolation-filters="sRGB">
<feFlood flood-opacity="0" result="BackgroundImageFix"/>
<feColorMatrix in="SourceAlpha" type="matrix" values="0 0 0 0 0 0 0 0 0 0 0 0 0 0 0 0 0 0 127 0" result="hardAlpha"/>
<feOffset dy="1.93831"/>
<feGaussianBlur stdDeviation="1.93831"/>
<feColorMatrix type="matrix" values="0 0 0 0 0.720325 0 0 0 0 0.784456 0 0 0 0 0.880237 0 0 0 0.222055 0"/>
<feBlend mode="normal" in2="BackgroundImageFix" result="effect1_dropShadow_1080_4251"/>
<feBlend mode="normal" in="SourceGraphic" in2="effect1_dropShadow_1080_4251" result="shape"/>
</filter>
</defs>
</svg>
