<svg width="69" height="68" viewBox="0 0 69 68" fill="none" xmlns="http://www.w3.org/2000/svg">
<g filter="url(#filter0_d_1080_4250)">
<rect x="4.50684" y="2" width="60.0875" height="60.0875" rx="30.0437" fill="white"/>
<rect x="5.47599" y="2.96915" width="58.1492" height="58.1492" rx="29.0746" stroke="#D8E0F0" stroke-width="1.93831"/>
</g>
<path fill-rule="evenodd" clip-rule="evenodd" d="M41.8719 25.8652C41.8719 30.0353 38.4913 33.4158 34.3212 33.4158C30.1511 33.4158 26.7705 30.0353 26.7705 25.8652C26.7705 21.695 30.1511 18.3145 34.3212 18.3145C38.4913 18.3145 41.8719 21.695 41.8719 25.8652ZM39.3552 25.8652C39.3552 28.6453 37.1015 30.899 34.3214 30.899C31.5413 30.899 29.2876 28.6453 29.2876 25.8652C29.2876 23.0851 31.5413 20.8314 34.3214 20.8314C37.1015 20.8314 39.3552 23.0851 39.3552 25.8652Z" fill="#3F8CFF"/>
<path d="M24.7537 41.5819C25.1667 40.6772 25.9253 39.6044 27.3514 38.7468C28.7852 37.8846 30.9744 37.1917 34.3217 37.1917C35.0167 37.1917 35.5801 36.6283 35.5801 35.9333C35.5801 35.2382 35.0167 34.6748 34.3217 34.6748C30.6279 34.6748 27.9647 35.4409 26.0543 36.5898C24.1363 37.7433 23.059 39.2334 22.4641 40.5368C21.9626 41.6354 22.1909 42.7549 22.8571 43.5527C23.4922 44.3129 24.4797 44.7424 25.5125 44.7424H34.3216C35.0166 44.7424 35.58 44.179 35.58 43.484C35.58 42.7889 35.0166 42.2255 34.3216 42.2255H25.5125C25.1552 42.2255 24.9023 42.075 24.7888 41.9391C24.736 41.8759 24.7176 41.8232 24.712 41.7858C24.7071 41.753 24.705 41.6888 24.7537 41.5819Z" fill="#3F8CFF"/>
<path d="M41.8707 34.6748C42.5658 34.6748 43.1292 35.2382 43.1292 35.9333V38.45L45.6461 38.4502C46.3411 38.4502 46.9045 39.0136 46.9045 39.7086C46.9045 40.4036 46.3411 40.9671 45.6461 40.9671L43.1292 40.9669V43.484C43.1292 44.179 42.5658 44.7424 41.8707 44.7424C41.1757 44.7424 40.6123 44.179 40.6123 43.484V40.9669L38.0954 40.9668C37.4003 40.9668 36.8369 40.4034 36.8369 39.7084C36.8369 39.0133 37.4004 38.4499 38.0954 38.4499L40.6123 38.45V35.9333C40.6123 35.2382 41.1757 34.6748 41.8707 34.6748Z" fill="#3F8CFF"/>
<defs>
<filter id="filter0_d_1080_4250" x="0.630225" y="0.0616946" width="67.8411" height="67.8406" filterUnits="userSpaceOnUse" color-interpolation-filters="sRGB">
<feFlood flood-opacity="0" result="BackgroundImageFix"/>
<feColorMatrix in="SourceAlpha" type="matrix" values="0 0 0 0 0 0 0 0 0 0 0 0 0 0 0 0 0 0 127 0" result="hardAlpha"/>
<feOffset dy="1.93831"/>
<feGaussianBlur stdDeviation="1.93831"/>
<feColorMatrix type="matrix" values="0 0 0 0 0.720325 0 0 0 0 0.784456 0 0 0 0 0.880237 0 0 0 0.222055 0"/>
<feBlend mode="normal" in2="BackgroundImageFix" result="effect1_dropShadow_1080_4250"/>
<feBlend mode="normal" in="SourceGraphic" in2="effect1_dropShadow_1080_4250" result="shape"/>
</filter>
</defs>
</svg>
